<?xml version="1.0" encoding="UTF-8"?>
<svg version="1.1" xmlns="http://www.w3.org/2000/svg" width="48" height="48">
<path d="M0 0 C3.125 1.6875 3.125 1.6875 5.125 4.6875 C3.1875 7.3125 3.1875 7.3125 0.125 9.6875 C-2.25702153 9.4422919 -4.36208723 8.79787177 -6.65625 8.12109375 C-9.11375104 7.44821737 -9.11375104 7.44821737 -12.3125 8.875 C-15.07542999 10.59925098 -15.07542999 10.59925098 -16.875 13.6875 C-17.56626939 19.6132074 -17.56626939 19.6132074 -14.6875 24.625 C-11.82016387 26.72771316 -10.39894176 27.59940146 -6.875 27.6875 C-2.87321061 26.6394123 -1.07543429 25.16186993 1.125 21.6875 C-1.845 21.6875 -4.815 21.6875 -7.875 21.6875 C-7.875 19.0475 -7.875 16.4075 -7.875 13.6875 C-1.935 13.6875 4.005 13.6875 10.125 13.6875 C10.51203584 20.65414506 10.44322334 25.96948561 6.125 31.6875 C0.29415171 36.32837925 -4.62349304 37.35222147 -11.875 36.6875 C-18.51705707 34.58418193 -22.34626033 31.48140354 -25.6875 25.375 C-27.5187577 19.68846292 -27.5187577 15.68653708 -25.6875 10 C-20.33603958 0.21974475 -10.4783354 -4.10872488 0 0 Z " fill="#32944E" transform="translate(31.875,6.3125)"/>
<path d="M0 0 C3.125 1.6875 3.125 1.6875 5.125 4.6875 C3.1875 7.3125 3.1875 7.3125 0.125 9.6875 C-2.25702153 9.4422919 -4.36208723 8.79787177 -6.65625 8.12109375 C-9.11375104 7.44821737 -9.11375104 7.44821737 -12.3125 8.875 C-15.07542999 10.59925098 -15.07542999 10.59925098 -16.875 13.6875 C-16.978125 14.986875 -17.08125 16.28625 -17.1875 17.625 C-17.5321632 21.02776576 -17.74401981 21.54962612 -20.25 24.1875 C-22.875 25.6875 -22.875 25.6875 -25.875 25.6875 C-27.66124248 20.32877257 -27.38582963 15.27376043 -25.6875 10 C-20.33603958 0.21974475 -10.4783354 -4.10872488 0 0 Z " fill="#C93E30" transform="translate(31.875,6.3125)"/>
<path d="M0 0 C5.94 0 11.88 0 18 0 C18.46000884 11.34688467 18.46000884 11.34688467 15 16 C12.3125 16.875 12.3125 16.875 10 17 C8.375 15.3125 8.375 15.3125 7 13 C7.8125 10.25 7.8125 10.25 9 8 C6.03 8 3.06 8 0 8 C0 5.36 0 2.72 0 0 Z " fill="#3E7ADD" transform="translate(24,20)"/>
<path d="M0 0 C2.19702465 0.37879735 3.83875922 0.90210381 5.75 2.0625 C7.76520569 5.18606882 7.65591028 8.45665859 7 12 C5.1875 14.5 5.1875 14.5 3 16 C2.01 16 1.02 16 0 16 C-1.66769477 10.99691568 -1.66769477 5.00308432 0 0 Z " fill="#EBB311" transform="translate(6,16)"/>
</svg>
